<?xml version="1.0" standalone="no"?>
<!DOCTYPE svg PUBLIC "-//W3C//DTD SVG 20010904//EN"
 "http://www.w3.org/TR/2001/REC-SVG-20010904/DTD/svg10.dtd">
<svg version="1.0" xmlns="http://www.w3.org/2000/svg"
 width="1024.000000pt" height="1024.000000pt" viewBox="0 0 1024.000000 1024.000000"
 preserveAspectRatio="xMidYMid meet">
<metadata>
Created by potrace 1.14, written by Peter Selinger 2001-2017
</metadata>
<g transform="translate(0.000000,1024.000000) scale(0.100000,-0.100000)"
fill="#000000" stroke="none">
<path d="M2600 8611 c0 -8 24 -81 37 -111 3 -8 7 -19 9 -25 1 -5 23 -66 49
-135 25 -69 53 -145 61 -170 8 -25 19 -54 24 -65 8 -18 241 -658 340 -935 66
-183 171 -474 185 -510 7 -20 43 -119 80 -220 111 -309 146 -404 155 -425 5
-11 16 -40 24 -65 8 -25 29 -83 46 -130 18 -47 35 -96 40 -110 11 -33 79 -220
123 -340 20 -52 83 -228 142 -390 155 -429 185 -512 206 -565 4 -11 22 -60 39
-110 43 -120 180 -498 220 -605 17 -47 33 -89 34 -95 2 -5 6 -17 9 -25 6 -17
19 -52 252 -695 92 -253 203 -559 247 -680 83 -228 148 -407 175 -485 8 -25
19 -53 24 -62 9 -17 79 -18 1259 -18 l1249 0 -40 113 c-23 61 -61 168 -86 237
-24 69 -52 148 -62 175 -10 28 -39 109 -65 180 -26 72 -55 153 -66 180 -10 28
-44 122 -75 210 -31 88 -61 171 -66 185 -6 14 -22 57 -36 95 -13 39 -28 79
-33 90 -4 11 -54 148 -110 305 -56 157 -151 422 -212 590 -131 365 -175 486
-262 730 -37 102 -70 194 -75 205 -5 11 -16 40 -24 65 -25 71 -186 520 -207
575 -17 45 -89 245 -205 570 -124 347 -437 1215 -449 1245 -13 32 -84 230
-276 765 -40 110 -93 259 -119 330 l-47 130 -1257 3 c-717 1 -1257 -2 -1257
-7z"/>
</g>
</svg>
